<svg
                  xmlns="http://www.w3.org/2000/svg"
                  viewBox="0 0 24 24"
                  fill="none"
                  stroke="white"
                  stroke-linecap="round"
                  stroke-linejoin="round"
                  width="24"
                  height="24"
                  stroke-width="2"
                >
                  <path d="M2 12a2 2 0 0 0 2 -2v-4a2 2 0 0 1 2 -2h12a2 2 0 0 1 2 2v4a2 2 0 0 0 2 2"></path>
                  <path d="M2 12a2 2 0 0 1 2 2v4a2 2 0 0 0 2 2h12a2 2 0 0 0 2 -2v-4a2 2 0 0 1 2 -2"></path>
                  <path d="M9 16v-8h3.5a2 2 0 1 1 0 4h-3.5h4a2 2 0 1 1 0 4h-4z"></path>
                </svg>